<svg width="1180" height="205" viewBox="0 0 1180 205" fill="none" xmlns="http://www.w3.org/2000/svg">
<path d="M1095.87 173.507C1071.8 193.934 1045.9 204.148 1018.91 204.148C965.651 204.148 928.809 168.4 928.809 121.71C928.809 75.0194 965.651 39.272 1015.62 39.272C1073.62 39.272 1101.71 84.5034 1101.71 131.194H967.11L959.815 136.301C966.016 158.187 985.713 176.425 1018.91 176.425C1041.89 176.425 1061.59 168.4 1080.55 153.08L1095.87 173.507ZM967.475 107.119H1061.59L1065.6 99.8237C1058.3 81.2205 1040.43 66.6297 1015.62 66.6297C990.82 66.6297 968.934 79.7614 961.274 102.742L967.475 107.119Z" fill="#000000"/>
<path d="M882.754 199.039L818.19 129.368L783.172 158.915V199.039H752.896V0H783.172V117.696H790.102L876.553 44.3771H919.96L844.453 107.482V114.778L920.69 199.039H882.754Z" fill="#000000"/>
<path d="M551.813 121.71C551.813 75.0194 589.384 39.272 638.993 39.272C688.966 39.272 726.173 75.0194 726.173 121.71C726.173 168.4 688.966 204.148 638.993 204.148C589.384 204.148 551.813 168.4 551.813 121.71ZM694.803 121.71C694.803 90.3397 672.187 66.9945 638.993 66.9945C605.799 66.9945 583.548 90.3397 583.548 121.71C583.548 153.08 605.799 176.425 638.993 176.425C672.187 176.425 694.803 153.08 694.803 121.71Z" fill="#000000"/>
<path d="M469.646 199.04H433.533L354.378 44.3774H389.032L447.03 160.374H456.879L514.877 44.3774H548.801L469.646 199.04Z" fill="#000000"/>
<path d="M220.779 110.767V199.041H190.138V44.3787H220.779V64.8058H228.439C240.476 50.2151 259.08 39.272 280.601 39.272C317.443 39.272 342.247 61.5229 342.247 102.742V199.041H311.606V108.943C311.606 84.8682 302.852 67.3592 276.589 67.3592C252.514 67.3592 233.911 88.5159 220.779 110.767Z" fill="#000000"/>
<path d="M98.123 164.751L106.877 173.506H160.863V199.04H0V173.506H62.3756L70.7653 164.751V78.301L62.3756 69.9113H0V44.3774H98.123V164.751Z" fill="#000000"/>
<rect x="1143.15" y="162.193" width="36.8466" height="36.8466" fill="#000000"/>
</svg>
